<svg width="192" height="192" viewBox="0 0 192 192" xmlns="http://www.w3.org/2000/svg">
  <!-- 背景 -->
  <rect width="192" height="192" fill="white" rx="32"/>

  <!-- アイコン本体（中央に配置、適切なサイズに調整） -->
  <g transform="translate(96, 96) scale(4.5)" style="color: rgb(88, 81, 231);">
    <path d="M0 -7.5V-5.5M0 5.5V7.5M-7.5 0H-5.5M5.5 0H7.5M4.5 4.5L3 3M4.5 -4.5L3 -3M-4.5 4.5L-3 3M-4.5 -4.5L-3 -3M0 3C1.6569 3 3 1.6569 3 0C3 -1.6569 1.6569 -3 0 -3C-1.6569 -3 -3 -1.6569 -3 0C-3 1.6569 -1.6569 3 0 3Z"
          stroke="currentColor"
          stroke-width="1.5"
          stroke-linecap="round"
          stroke-linejoin="round"
          fill="none"/>
  </g>
</svg>
